<svg width="350" height="89" viewBox="0 0 350 89" fill="none" xmlns="http://www.w3.org/2000/svg">
<path d="M111.93 15.5838H24.1747C11.6261 16.5895 -0.119355 26.6474 1.08531 44.7514C2.28998 62.8554 18.3187 69.7283 26.1825 70.9017L108.416 70.9017C121.969 70.9017 145.56 88 174.673 88C191.267 88 223.3 74.3309 239.925 72.9133C263.517 70.9017 265.108 70.9017 326.345 70.9017C334.543 70.2312 349.736 63.8612 350.94 43.7456C352.145 23.63 334.793 16.5896 327.264 15.5838H243.524C217.925 15.5838 199.268 0.999969 174.673 0.999969C153.591 0.999953 123.474 15.5838 111.93 15.5838Z" fill="#010807" stroke="#010807"/>
</svg>
